<?xml version="1.0" encoding="utf-8"?>
<!-- Generator: Adobe Illustrator 21.1.0, SVG Export Plug-In . SVG Version: 6.00 Build 0)  -->
<svg version="1.1" id="Layer_1" xmlns="http://www.w3.org/2000/svg" xmlns:xlink="http://www.w3.org/1999/xlink" x="0px" y="0px"
	 viewBox="0 0 24 24" style="enable-background:new 0 0 24 24;" xml:space="preserve">
<style type="text/css">
	.st0{fill:#3B5998;}
</style>
<g>
	<path class="st0" d="M16.9,12v-0.2h-3.5v11.5H9.1V11.8H6.9V8.2l2.3,0V5.3c0-0.5,0.1-1,0.2-1.5C9.4,3.4,9.6,3,9.8,2.7
		c0.3-0.5,0.8-1,1.4-1.4c0.6-0.4,1.5-0.6,2.5-0.6h0l3.3,0v3.5l-2.3,0c-0.1,0-0.3,0-0.4,0.1c-0.1,0-0.2,0.1-0.3,0.1
		c-0.2,0.1-0.3,0.2-0.4,0.4c-0.1,0.2-0.1,0.4-0.1,0.7v2.6h3.6L16.7,12L16.9,12v-0.2V12l0.2,0l0.4-4.3h-3.7V5.6c0-0.2,0-0.3,0.1-0.5
		c0-0.1,0.1-0.1,0.1-0.2c0.1-0.1,0.2-0.1,0.3-0.2c0.1,0,0.2,0,0.3,0h2.8V0.3l-3.8,0h0c-1,0-1.8,0.2-2.5,0.5C10.7,1,10.3,1.3,10,1.7
		c-0.5,0.5-0.8,1.2-1,1.8C8.8,4.1,8.7,4.8,8.7,5.3v2.4H6.4v4.5h2.3v11.5h5.2V12.2h3.2l0-0.2L16.9,12z"/>
</g>
</svg>
