<?xml version="1.0" encoding="utf-8"?>
<!-- Generator: Adobe Illustrator 21.1.0, SVG Export Plug-In . SVG Version: 6.00 Build 0)  -->
<svg version="1.1" id="Layer_1" xmlns="http://www.w3.org/2000/svg" xmlns:xlink="http://www.w3.org/1999/xlink" x="0px" y="0px"
	 viewBox="0 0 24 24" style="enable-background:new 0 0 24 24;" xml:space="preserve">
<style type="text/css">
	.st0{fill:#3A3534;}
</style>
<g>
	<path class="st0" d="M8.1,21.1c2.1,0,4-0.4,5.6-1.2c2.4-1.1,4.3-3,5.5-5.1c1.3-2.1,1.9-4.5,1.9-6.8c0-0.2,0-0.4,0-0.6l-0.2,0
		L21,7.7c0.9-0.6,1.7-1.5,2.3-2.4l0.4-0.6L23.1,5c-0.8,0.4-1.6,0.6-2.5,0.7l0,0.2l0.1,0.2c1-0.6,1.7-1.5,2.1-2.6l0.2-0.6l-0.5,0.3
		c-0.8,0.5-1.8,0.9-2.8,1.1l0,0.2l0.2-0.2c-0.9-0.9-2.1-1.5-3.4-1.5c-2.6,0-4.7,2.1-4.7,4.7c0,0.4,0,0.7,0.1,1.1l0.2,0l0-0.2
		c-3.7-0.2-6.9-2-9.1-4.6L2.7,3.5L2.5,3.8C2.1,4.5,1.9,5.3,1.9,6.2c0,1.6,0.8,3.1,2.1,3.9l0.1-0.2l0-0.2c-0.7,0-1.4-0.2-1.9-0.5
		L1.8,9v0.4c0,0,0,0,0,0.1c0,1.1,0.4,2.2,1.1,3c0.7,0.8,1.6,1.4,2.7,1.6l0-0.2l-0.1-0.2c-0.4,0.1-0.7,0.2-1.1,0.2
		c-0.3,0-0.5,0-0.8-0.1l-0.4-0.1L3.4,14c0.3,0.9,0.9,1.8,1.7,2.3c0.8,0.6,1.7,0.9,2.8,0.9l0-0.2l-0.1-0.2c-1.5,1.2-3.4,1.9-5.5,1.9
		c-0.4,0-0.7,0-1-0.1l-1-0.1l0.8,0.5C3.1,20.4,5.5,21.1,8.1,21.1v-0.4c-2.5,0-4.8-0.7-6.8-2l-0.1,0.2l0,0.2c0.4,0,0.7,0.1,1.1,0.1
		c2.2,0,4.1-0.7,5.7-2l0.5-0.4l-0.6,0c-0.9,0-1.8-0.3-2.5-0.9c-0.7-0.5-1.2-1.3-1.5-2.1l-0.2,0.1l0,0.2c0.3,0.1,0.6,0.1,0.9,0.1
		c0.4,0,0.8-0.1,1.2-0.2l0.9-0.2l-0.9-0.2c-1-0.2-1.8-0.7-2.5-1.5c-0.6-0.7-1-1.7-1-2.7c0,0,0,0,0-0.1H2.1L2,9.5
		c0.6,0.3,1.4,0.6,2.1,0.6l0.8,0L4.2,9.7C3.1,9,2.3,7.7,2.3,6.2c0-0.8,0.2-1.5,0.6-2.2L2.7,3.9L2.5,4C4.8,6.8,8.2,8.6,12,8.8l0.3,0
		l-0.1-0.3c-0.1-0.3-0.1-0.6-0.1-1c0-1.2,0.5-2.3,1.3-3c0.8-0.8,1.8-1.3,3-1.3c1.2,0,2.3,0.5,3.1,1.4l0.1,0.1l0.1,0
		c1.1-0.2,2-0.6,2.9-1.1l-0.1-0.2l-0.2-0.1c-0.3,1-1,1.8-1.9,2.4l-0.9,0.5l1-0.1c0.9-0.1,1.8-0.4,2.7-0.7l-0.1-0.2L23,5.1
		c-0.6,0.9-1.3,1.7-2.2,2.3l-0.1,0.1l0,0.1c0,0.2,0,0.4,0,0.6c0,2.9-1.1,6.1-3.2,8.5c-1.1,1.2-2.4,2.2-3.9,3
		c-1.6,0.7-3.4,1.1-5.4,1.1V21.1L8.1,21.1z"/>
</g>
</svg>
