<?xml version="1.0" encoding="utf-8"?>
<!-- Generator: Adobe Illustrator 21.1.0, SVG Export Plug-In . SVG Version: 6.00 Build 0)  -->
<svg version="1.1" id="Layer_1" xmlns="http://www.w3.org/2000/svg" xmlns:xlink="http://www.w3.org/1999/xlink" x="0px" y="0px"
	 viewBox="0 0 24 24" style="enable-background:new 0 0 24 24;" xml:space="preserve">
<style type="text/css">
	.st0{fill:#4099FF;}
</style>
<g>
	<path class="st0" d="M8,21.2c2.1,0,4-0.4,5.6-1.2c2.4-1.1,4.3-3,5.5-5.1c1.3-2.1,1.9-4.5,1.9-6.8c0-0.2,0-0.4,0-0.6l-0.2,0l0.1,0.2
		c0.9-0.6,1.7-1.5,2.3-2.4l0.4-0.6L23,5c-0.8,0.4-1.6,0.6-2.5,0.7l0,0.2l0.1,0.2c1-0.6,1.7-1.5,2.1-2.6L22.8,3l-0.5,0.3
		c-0.8,0.5-1.8,0.9-2.8,1.1l0,0.2l0.2-0.2c-0.9-0.9-2.1-1.5-3.4-1.5c-2.6,0-4.7,2.1-4.7,4.7c0,0.4,0,0.7,0.1,1.1l0.2,0l0-0.2
		C8.2,8.2,5,6.5,2.8,3.8L2.6,3.5L2.4,3.8C2,4.5,1.8,5.3,1.8,6.2c0,1.6,0.8,3.1,2.1,3.9L4,9.9l0-0.2c-0.7,0-1.4-0.2-1.9-0.5L1.8,9
		v0.4c0,0,0,0,0,0.1c0,1.1,0.4,2.2,1.1,3c0.7,0.8,1.6,1.4,2.7,1.6l0-0.2l-0.1-0.2c-0.4,0.1-0.7,0.2-1.1,0.2c-0.3,0-0.5,0-0.8-0.1
		l-0.4-0.1L3.3,14C3.6,15,4.2,15.8,5,16.3c0.8,0.6,1.7,0.9,2.8,0.9l0-0.2l-0.1-0.2c-1.5,1.2-3.4,1.9-5.5,1.9c-0.4,0-0.7,0-1-0.1
		l-1-0.1L1,19.1C3,20.4,5.4,21.2,8,21.2v-0.4c-2.5,0-4.8-0.7-6.8-2l-0.1,0.2l0,0.2c0.4,0,0.7,0.1,1.1,0.1c2.2,0,4.1-0.7,5.7-2
		l0.5-0.4l-0.6,0c-0.9,0-1.8-0.3-2.5-0.9c-0.7-0.5-1.2-1.3-1.5-2.1l-0.2,0.1l0,0.2c0.3,0.1,0.6,0.1,0.9,0.1c0.4,0,0.8-0.1,1.2-0.2
		l0.9-0.2l-0.9-0.2c-1-0.2-1.8-0.7-2.5-1.5c-0.6-0.7-1-1.7-1-2.7c0,0,0,0,0-0.1H2L1.9,9.6c0.6,0.3,1.4,0.6,2.1,0.6l0.8,0L4.1,9.8
		C3,9,2.2,7.7,2.2,6.2c0-0.8,0.2-1.5,0.6-2.2L2.6,3.9L2.4,4.1c2.3,2.8,5.6,4.6,9.4,4.8l0.3,0l-0.1-0.3C12,8.3,12,7.9,12,7.6
		c0-1.2,0.5-2.3,1.3-3c0.8-0.8,1.8-1.3,3-1.3c1.2,0,2.3,0.5,3.1,1.4l0.1,0.1l0.1,0c1.1-0.2,2-0.6,2.9-1.1l-0.1-0.2l-0.2-0.1
		c-0.3,1-1,1.8-1.9,2.4l-0.9,0.5l1-0.1c0.9-0.1,1.8-0.4,2.7-0.7L23,5.2l-0.2-0.1c-0.6,0.9-1.3,1.7-2.2,2.3l-0.1,0.1l0,0.1
		c0,0.2,0,0.4,0,0.6c0,2.9-1.1,6.1-3.2,8.5c-1.1,1.2-2.4,2.2-3.9,3c-1.6,0.7-3.4,1.1-5.4,1.1V21.2L8,21.2z"/>
</g>
</svg>
