<?xml version="1.0" encoding="UTF-8" standalone="no"?>
<svg
   xmlns:dc="http://purl.org/dc/elements/1.1/"
   xmlns:cc="http://creativecommons.org/ns#"
   xmlns:rdf="http://www.w3.org/1999/02/22-rdf-syntax-ns#"
   xmlns:svg="http://www.w3.org/2000/svg"
   xmlns="http://www.w3.org/2000/svg"
   xmlns:sodipodi="http://sodipodi.sourceforge.net/DTD/sodipodi-0.dtd"
   xmlns:inkscape="http://www.inkscape.org/namespaces/inkscape"
   viewBox="0 0 24 24"
   version="1.1"
   id="svg86"
   sodipodi:docname="c4l-logo-red.svg"
   inkscape:export-filename="/home/chris/projects/d4l/polymer-app/app/edit/images/manifest/icon-512x512.png"
   inkscape:export-xdpi="2048"
   inkscape:export-ydpi="2048"
   inkscape:version="0.92.1 r15371">
  <metadata
     id="metadata92">
    <rdf:RDF>
      <cc:Work
         rdf:about="">
        <dc:format>image/svg+xml</dc:format>
        <dc:type
           rdf:resource="http://purl.org/dc/dcmitype/StillImage" />
        <dc:title></dc:title>
      </cc:Work>
    </rdf:RDF>
  </metadata>
  <defs
     id="defs90" />
  <sodipodi:namedview
     pagecolor="#ffffff"
     bordercolor="#666666"
     borderopacity="1"
     objecttolerance="10"
     gridtolerance="10"
     guidetolerance="10"
     inkscape:pageopacity="0"
     inkscape:pageshadow="2"
     inkscape:window-width="3840"
     inkscape:window-height="2000"
     id="namedview88"
     showgrid="false"
     inkscape:pagecheckerboard="true"
     inkscape:zoom="73.958333"
     inkscape:cx="12"
     inkscape:cy="12"
     inkscape:window-x="0"
     inkscape:window-y="80"
     inkscape:window-maximized="1"
     inkscape:current-layer="svg86" />
  <circle
     style="fill:#ffffff;stroke-width:15.2474308"
     id="path94"
     cx="12"
     cy="12"
     r="12" />
  <path
     d="M 12.000001,1.0098043 2.5000001,6.504902 V 17.40196 L 12.000001,22.990196 21.5,17.495098 V 6.504902 Z m 3.72549,8.6617643 v 4.2843144 l -3.911765,2.235294 -1.676471,-0.931373 v -4.377451 l 1.769608,-1.0245095 1.210785,0.6519605 0.465687,0.279411 v 2.04902 l -1.39706,0.838235 v -2.142156 l -0.372549,-0.186275 -0.465686,0.279413 v 2.887253 l 0.465686,0.279412 2.607844,-1.490196 V 10.416666 L 12.000001,9.0196079 9.4852943,10.509804 v 2.887255 L 8.2745099,13.955883 V 9.6715686 l 3.7254911,-2.142157 z m 3.352941,3.1666664 v 3.259804 L 14.235296,18.892157 12.000001,17.495098 9.7647059,18.79902 4.9215687,16.004902 V 12.745097 L 3.9901962,11.906863 4.9215687,11.068628 V 7.9019614 L 9.6715689,5.1078436 12.000001,6.504902 7.2500002,9.2058828 V 14.794117 L 12.000001,17.588235 16.75,14.794117 V 9.2058828 L 12.000001,6.411765 14.235296,5.1078436 18.985294,7.9019614 v 3.2598036 l 0.931374,0.838236 z"
     id="path84"
     inkscape:connector-curvature="0"
     style="fill:#ff0000;stroke-width:0.93137264" />
</svg>
