<?xml version="1.0" encoding="UTF-8" standalone="no"?>
<svg
   xmlns:dc="http://purl.org/dc/elements/1.1/"
   xmlns:cc="http://creativecommons.org/ns#"
   xmlns:rdf="http://www.w3.org/1999/02/22-rdf-syntax-ns#"
   xmlns:svg="http://www.w3.org/2000/svg"
   xmlns="http://www.w3.org/2000/svg"
   xmlns:sodipodi="http://sodipodi.sourceforge.net/DTD/sodipodi-0.dtd"
   xmlns:inkscape="http://www.inkscape.org/namespaces/inkscape"
   version="1.1"
   x="0"
   y="0"
   width="28.360001"
   height="28.360001"
   viewBox="0 0 28.360001 28.36"
   id="svg2"
   inkscape:version="0.48.4 r9939"
   sodipodi:docname="labour-rose-red.svg"
   inkscape:export-filename="/home/chris/Work/Workspaces/WebStorm/amplify/polymer-app/app/edit/images/manifest/icon-512x512.png"
   inkscape:export-xdpi="1624.8199"
   inkscape:export-ydpi="1624.8199">
  <metadata
     id="metadata19">
    <rdf:RDF>
      <cc:Work
         rdf:about="">
        <dc:format>image/svg+xml</dc:format>
        <dc:type
           rdf:resource="http://purl.org/dc/dcmitype/StillImage" />
        <dc:title></dc:title>
      </cc:Work>
    </rdf:RDF>
  </metadata>
  <defs
     id="defs17" />
  <sodipodi:namedview
     pagecolor="#ffffff"
     bordercolor="#666666"
     borderopacity="1"
     objecttolerance="10"
     gridtolerance="10"
     guidetolerance="10"
     inkscape:pageopacity="0"
     inkscape:pageshadow="2"
     inkscape:window-width="1416"
     inkscape:window-height="788"
     id="namedview15"
     showgrid="false"
     inkscape:zoom="14.263158"
     inkscape:cx="18.490437"
     inkscape:cy="11.579172"
     inkscape:window-x="0"
     inkscape:window-y="0"
     inkscape:window-maximized="0"
     inkscape:current-layer="g3316" />
  <g
     id="Layer_1"
     transform="translate(0,0.38199921)">
    <g
       id="g3316">
      <path
         d="m 9.561,27.275 c -0.164,0.037 -0.298,0.16 -0.395,0.279 l 2.441,0 c -0.25,-0.47 -0.551,-1.057 -0.587,-1.227 0,0 -1.118,0.87 -1.459,0.948"
         id="path2566"
         inkscape:connector-curvature="0"
         style="fill:#d30437" />
      <path
         d="m 5.819,26.405 c 0.016,-0.248 0,-1.087 -0.156,-1.273 0,0 -0.093,0.512 -0.17,0.684 -0.053,0.114 -0.494,1.105 -0.775,1.739 l 1.416,0 C 6.094,27.436 6.044,27.298 6.006,27.213 5.927,27.042 5.803,26.654 5.819,26.405"
         id="path2570"
         inkscape:connector-curvature="0"
         style="fill:#d30437" />
      <path
         d="m 24.648,21.1585 c -0.187,0.389 -0.481,0.466 -0.668,0.497 -0.185,0.032 -0.248,0.14 -0.465,0.404 -0.217,0.264 -0.481,0.667 -1.429,2.05 -0.947,1.382 -3.789,0.854 -5.373,0.529 -1.583,-0.327 -1.817,-0.824 -1.941,-1.926 -0.124,-1.104 0.684,-1.756 0.916,-1.865 0.233,-0.108 1.258,-0.512 1.895,-1.071 0.637,-0.558 1.662,-0.668 1.817,-0.668 0.154,0 0.574,-0.031 1.972,-0.187 1.398,-0.154 2.811,0.219 3.773,0.514 0.811,0.249 2.436,1.157 3.215,1.595 l 0,-18.8619998 c 0,-1.167 -0.945,-2.11300002 -2.113,-2.11300002 l -2.164,0 c 0.774,0.654 1.94,1.95700002 2.136,3.26200002 0.245,1.629 -1.575,2.172 -1.725,2.224 -0.148,0.053 -0.213,0.086 -0.213,0.086 -0.542,-1.128 -0.052,-1.617 0.172,-1.947 0.222,-0.33 -0.107,-0.49 -0.449,-0.64 -0.339,-0.148 -0.456,-0.297 -0.509,-0.478 -0.055,-0.181 -0.086,-0.437 -0.213,-0.703 -0.128,-0.266 -0.373,-0.308 -0.597,-0.329 -0.222,-0.022 -0.404,-0.15 -0.532,-0.182 -0.127,-0.031 -0.319,-0.031 -0.319,-0.031 l 0.01,0.181 c 0,0 -0.616,-0.32 -1.213,-0.75600002 -0.424,-0.312 -0.535,-0.413 -0.704,-0.687 l -0.939,0 c 0.051,0.25 0.137,0.394 0.217,0.505 0.107,0.15 -0.182,0.55400002 -0.457,0.63800002 -0.277,0.086 -0.917,-0.115 -0.917,-0.115 -0.903,0.244 -0.872,0.095 -1.947,0.254 -1.075,0.16 -1.266,0.874 -1.458,1.309 -0.192,0.437 0.149,0.277 -0.362,1.001 -0.511,0.724 -1.608,0.959 -2.055,0.948 -0.446,-0.01 -0.308,-0.064 -0.287,1.34 0.022,1.405 0.223,1.214 0.693,1.331 0.468,0.117 0.648,-0.511 0.724,-0.607 0.074,-0.095 0.084,-0.224 -0.022,-0.234 -0.519,-0.051 -0.831,-0.16 -0.979,-0.298 -0.149,-0.139 0.064,-0.414 0.308,-0.586 0.244,-0.17 0.98,-0.564 1.192,-0.659 0.213,-0.096 0.831,-0.297 1.108,-0.351 0.277,-0.053 0.319,0.191 0.383,0.319 0.055,0.112 0.021,0.235 0.265,0.203 1.451,-0.19 1.768,0.042 1.863,0.032 0.096,-0.012 0.225,-0.118 0.246,-0.299 0.02,-0.18 -0.49,-0.287 -0.724,-0.351 -0.234,-0.064 -1.576,-0.086 -1.576,-0.086 0,0 -0.34,-0.265 -0.404,-0.903 -0.064,-0.639 1.543,-1.288 2.117,-1.448 0.576,-0.16 1.97,-0.363 3.555,-0.15 1.588,0.213 2.257,1.204 2.534,2.29 0.277,1.085 -0.564,1.425 -0.692,1.436 -0.127,0.01 -0.404,0.277 -0.521,0.478 -0.117,0.203 -0.49,0.48 -0.756,0.64 -0.267,0.159 -0.671,0.511 -0.671,0.511 0,0 -0.01,0.266 -0.341,0.394 -0.33,0.127 -0.574,-0.544 -0.776,-0.991 -0.202,-0.446 -0.383,-0.639 -0.554,-0.989 -0.17,-0.351 -0.447,-0.427 -0.553,-0.427 -0.107,0 -0.138,0.181 -0.138,0.468 0,0.289 -0.266,0.576 -0.714,0.863 -0.447,0.288 -1.352,-0.202 -1.458,-0.244 -0.107,-0.043 -0.617,-0.246 -0.766,-0.31 -0.149,-0.063 -0.203,-0.159 -0.33,-0.309 -0.129,-0.148 -0.361,0.108 -0.437,0.16 -0.074,0.055 -0.18,0.149 0.011,0.394 0.192,0.244 0.798,0.447 1.085,0.533 0.289,0.084 0.607,0.468 0.778,0.607 0.17,0.138 0.352,0.267 0.469,0.191 0.791,-0.504 1.756,-0.64 1.914,-0.64 0.16,0 0.831,0.012 0.501,1.034 -0.452,1.403 -1.927,1.692 -3.065,1.735 -1.139,0.042 -1.725,-0.245 -1.789,-0.245 -0.063,0 -0.074,0.127 -0.043,0.127 0.033,0 0.406001,0.267 0.683,0.4589998 0.275001,0.191 0.744,0.489 0.936,0.489 0.192,0 0.82,-0.212 1.033,-0.267 0.212,-0.052 0.733,-0.179 1.149,-0.3079998 0.415,-0.127 2.011,-1.415 2.298,-1.703 0.289,-0.287 0.511,-0.958 0.618,-0.989 0.106,-0.032 0.309,0.138 0.469,0.159 0.16,0.02 0.499,-0.458 0.585,-0.799 0.086,-0.34 0.107,-0.383 0.203,-0.404 0.095,-0.021 0.127,0.213 0.127,0.213 0,0 0.117,0.596 0.064,1.426 -0.053,0.831 -0.128,1.043 -0.373,1.746 C 21.706,10.2785 20.866,10.3535 20.589,10.4385 c -0.276,0.086 -0.969,0.309 -1.459,0.394 -0.489,0.084 -0.745,-0.181 -1.075,-0.33 -0.117,-0.052 -0.755,-0.159 -0.808,0.022 -0.229,0.778 1.15,1.202 1.372,1.255 1.461,0.348 3.492,-0.351 3.598,-1.224 0.161,-1.3149998 0.308,-1.4689998 0.48,-1.6599998 0.17,-0.191 0.628,-0.031 0.628,-0.031 0.17,-0.172 0.968,-0.757 0.968,-0.757 0,0 0.255,-0.127 0.127,-0.33 -0.127,-0.201 -0.213,-1.021 0.799,-0.915 1.011,0.107 1.351,1.532 1.351,1.532 0,0 0.405,0.842 0.117,2.9809998 -0.287,2.138 -3.139,4.333 -5.736,5.151 -2.597,0.819 -3.832,0.725 -4.152,0.725 -0.318,0 -0.958,-0.256 -1.171,-0.298 -0.212,-0.043 -0.755,-0.406 -0.936,-0.48 -0.181,-0.074 -0.808,-0.394 -0.947,-0.457 -0.138,-0.064 -0.628,-0.373 -0.915,-0.575 -0.288,-0.202 -0.362,-0.416 -0.458,-0.629 -0.096,-0.212 -0.617,-0.626 -0.681,-0.68 -0.064,-0.053 0,-0.139 0,-0.139 0.595,0.256 4.618,0.819 4.938,0.831 0.32,0.01 1.778,0.053 1.969,0.053 0.191,0 0.532,0.117 0.542,-0.129 0.012,-0.244 -1.116,-0.414 -1.244,-0.425 -0.128,-0.01 -0.691,-0.022 -1.107,-0.074 -0.415,-0.053 -1.416,-1.608 -1.555,-1.809 -0.137,-0.203 -0.191,-0.15 -0.446,-0.277 -0.256,-0.129 -1.15,-0.82 -1.257,-0.938 -0.105,-0.116 0.086,-0.563 -0.02,-0.68 -0.107,-0.118 -0.448001,0.073 -0.716,0.194 -0.636,0.287 -0.87,-0.041 -0.87,-0.041 L 11.056,9.7865002 10.849,10.2415 c 0,0 2.194,1.782 2.815,2.279 0.622,0.497 0.166,0.662 0.166,0.662 0,0 -0.456,0.497 -0.621,0.538 -0.166,0.042 -1.491,-0.207 -2.526,-0.496 -1.0350005,-0.29 -1.3660005,-0.622 -2.4010005,-1.532 -1.035,-0.911 -1.449,-3.2709998 -1.325,-3.7279998 0.124,-0.455 0.166,-1.159 0.083,-1.366 -0.083,-0.207 -0.249,-0.911 0.124,-0.911 0.373,0 0.662,0.828 1.532,1.822 0.869001,0.993 1.8210005,1.325 2.1940005,1.118 0.373,-0.207 -0.124,-0.829 -0.331,-1.201 -0.207,-0.373 -0.166,-0.497 -0.9939995,-1.532 -0.828,-1.035 -0.248,-1.822 -0.083,-2.194 0.166,-0.373 0.6629995,-1.077 0.7869995,-2.237 0.067,-0.62000002 0.311,-1.03800002 0.671,-1.40800002 l -8.8269995,0 c -1.168,0 -2.113,0.94600002 -2.113,2.11300002 l 0,7.512 c 0.577,0.193 1.859,0.6339998 2.089,0.8219998 0.298,0.245 2.942,2.242 2.842,5.822 -0.01,0.383 0.12,0.507 0.287,0.693 0.096,0.105 1.022,1.001 0.862,1.553 -0.425,-0.628 -0.851,-0.958 -0.979,-1.022 -0.127,-0.064 -0.266,-0.139 -0.361,0.097 -0.096,0.233 -0.182,0.862 -1.448,0.681 -1.16,-0.167 -2.117,-0.364 -3.292,-1.959 l 0,9.06 c 0,1.166 0.945,2.113 2.113,2.113 l 1.685,0 c 0.185,-0.378 0.291,-0.623 0.431,-0.947 0.201,-0.465 0.853,-2.127 1.165,-2.655 0.309,-0.528 0.761,-1.226 0.761,-1.226 0,0 -0.14,-1.104 -0.109,-1.741 0.03,-0.636 0.373,-2.05 0.373,-2.05 0,0 0.124,-0.231 0.061,-0.481 -0.061,-0.248 -0.156,-0.511 -0.093,-0.962 0.062,-0.45 0.264,-1.149 0.621,-1.475 0.357,-0.325 0.606,-0.512 0.807,-0.497 0.203,0.016 0.512,0.31 0.916,1.258 0,0 -0.217,0.03 -0.388,-0.016 -0.17,-0.047 -0.061,0.093 -0.03,0.14 0.03,0.046 0.434,0.357 0.233,0.746 -0.203,0.388 -1.171,1.556 -0.964,1.831 0.14,0.187 0.219,0.016 0.436,-0.217 0.217,-0.233 0.698,-0.792 0.776,-0.761 0.077,0.032 -0.155,0.84 -0.993,1.709 0,0 0.232,0.109 0,0.543 -0.233,0.435 -0.576,0.885 -0.621,0.978 -0.047,0.094 -0.047,0.311 0.092,0.187 0.14,-0.125 1.459,-1.18 2.7489995,-1.18 0.932,0 1.01,0.287 1.18,0.373 0.155,0.077 0.389,0.341 0.434,0.481 0.047,0.139 0.109,0.247 0.342,0.326 0.234,0.077 0.995,0.264 1.103,1.257 0,0 0.404,0.497 -0.094,1.258 0,0 3.892,-0.524 5.542,3.121 l 7.719,0 c 1.168,0 2.113,-0.947 2.113,-2.113 l 0,-4.074 c -0.659,-0.39 -2.087,-0.567 -2.283,-0.567 -0.234,0 -1.242,-0.016 -1.429,0.372 M 7.6920005,12.3345 c -0.124,0.032 -0.267,-0.028 -0.462,0.167 -0.063,0.062 -0.14,0.199 -0.145,0.334 -0.011,0.404 -0.885,-0.016 -0.993,-0.05 -0.279,-0.087 -0.714,-0.354 -1.676,-1.44 -0.964,-1.088 -1.305,-3.3239998 -1.337,-4.2089998 -0.031,-0.885 0.357,-2.5 1.507,-4.022 1.149,-1.521 3.152,-1.786 3.416,-1.786 0.264,0 0.512,0.032 0.528,0.187 0.016,0.156 -0.031,0.156 -0.031,0.342 0,0 0.14,0.341 0.093,0.885 -0.106,1.24 -1.288,2.205 -1.863,2.687 -0.574,0.481 -0.513,1.117 -0.497,1.754 0.015,0.635 0.512,2.748 0.621,3.1049998 0.108,0.357 0.811,1.588 0.921,1.743 0.108,0.156 0.041,0.272 -0.082,0.303 M 10.774,18.8475 c -0.628,-0.447 -0.9889995,-1.288 -1.3719995,-2.374 -0.384,-1.085 -0.606,-1.842 -0.778,-2.33 -0.169,-0.49 -0.287,-0.533 -0.308,-0.661 -0.021,-0.127 0.021,-0.201 0.074,-0.254 0,0 0.937,0.148 1.7149995,0.499 0.777,0.352 0.755,0.416 1.425,0.863 0.671,0.447 0.938,1.372 1.118,1.713 0.181,0.341 0.8,0.601 0.886,0.644 0.086,0.041 0.364,0.244 0.364,0.244 2.704,1.032 4.519,1.114 4.604,1.135 0.086,0.02 0.127,0.096 0.127,0.096 -0.255,0.392 -2.661,0.468 -2.661,0.468 0,0 -0.829,-0.022 -2.191,0.372 -1.364,0.393 -2.374,0.032 -3.003,-0.415"
         id="path2594"
         inkscape:connector-curvature="0"
         style="fill:#d30437" />
    </g>
  </g>
</svg>
