<?xml version="1.0" encoding="UTF-8"?>
<!DOCTYPE svg PUBLIC "-//W3C//DTD SVG 1.1//EN" "http://www.w3.org/Graphics/SVG/1.1/DTD/svg11.dtd">
<svg version="1.1" xmlns="http://www.w3.org/2000/svg" xmlns:xlink="http://www.w3.org/1999/xlink" x="0" y="0" width="152" height="27.978" viewBox="0, 0, 152, 27.978">
  <g id="Layer_1">
    <g id="g3316">
      <path d="M9.561,27.275 C9.397,27.312 9.263,27.435 9.166,27.554 L11.607,27.554 C11.357,27.084 11.056,26.497 11.02,26.327 C11.02,26.327 9.902,27.197 9.561,27.275" fill="#FFFFFF" id="path2566"/>
      <path d="M5.819,26.405 C5.835,26.157 5.819,25.318 5.663,25.132 C5.663,25.132 5.57,25.644 5.493,25.816 C5.44,25.93 4.999,26.921 4.718,27.555 L6.134,27.555 C6.094,27.436 6.044,27.298 6.006,27.213 C5.927,27.042 5.803,26.654 5.819,26.405" fill="#FFFFFF" id="path2570"/>
      <path d="M45.949,23.709 L36.667,23.719 C36.355,23.719 36.104,23.466 36.104,23.156 L36.097,0.605 C36.097,0.294 35.844,0.041 35.533,0.041 L31.977,0.041 C31.666,0.041 31.414,0.294 31.414,0.605 L31.414,26.898 C31.414,27.209 31.666,27.462 31.977,27.462 L34.135,27.462 C34.181,27.472 34.225,27.481 34.274,27.481 L45.949,27.481 C46.26,27.481 46.513,27.228 46.513,26.917 L46.513,24.271 C46.513,23.962 46.26,23.709 45.949,23.709" fill="#FFFFFF" id="path2574"/>
      <path d="M133.787,17.52 L133.787,6.32 C133.787,6.009 134.039,5.756 134.35,5.756 L137.695,5.756 C138.008,5.756 138.259,6.009 138.259,6.32 L138.259,19.419 L138.259,27.097 C138.259,27.408 138.008,27.659 137.695,27.659 L136.214,27.659 C136.214,27.659 135.763,27.591 135.571,27.044 C135.378,26.497 135.152,25.628 135.152,25.628 C135.152,25.628 134.928,24.598 134.316,25.275 C133.705,25.95 131.042,28.028 125.854,27.978 C117.588,27.896 118.041,19.713 118.041,17.983 L118.041,6.237 C118.041,5.926 118.293,5.673 118.604,5.673 L121.949,5.673 C122.261,5.673 122.512,5.926 122.512,6.237 L122.512,18.212 C122.512,19.636 122.392,24.134 127.583,24.134 C132.39,24.134 133.648,21.904 133.787,17.52" fill="#FFFFFF" id="path2578"/>
      <path d="M144.635,7.927 C144.024,8.603 143.798,7.573 143.798,7.573 C143.798,7.573 143.574,6.705 143.38,6.157 C143.187,5.61 142.736,5.542 142.736,5.542 L141.256,5.542 C140.944,5.542 140.692,5.795 140.692,6.106 L140.65,27.039 C140.65,27.349 140.903,27.602 141.214,27.602 L144.559,27.602 C144.869,27.602 145.122,27.349 145.122,27.039 L145.122,13.939 C145.272,12.906 145.875,9.788 149.232,9.368 C150.462,9.214 151.116,9.329 151.116,9.329 C151.693,9.329 152,9.252 152,8.598 C152,7.946 151.963,6.023 151.963,6.023 C151.963,6.023 151.923,5.176 151.155,5.215 C150.385,5.253 147.656,5.446 146.387,6.33 C145.117,7.215 144.635,7.927 144.635,7.927" fill="#FFFFFF" id="path2582"/>
      <path d="M66.225,7.358 C63.701,4.891 58.456,5.147 58.456,5.147 C48.332,4.834 48.758,12.122 48.758,12.122 L48.755,12.723 C48.755,13.035 49.008,13.287 49.319,13.287 L52.553,13.287 C52.864,13.287 53.115,13.035 53.115,12.723 L53.169,12.045 C53.169,12.045 53.546,8.593 58.257,8.804 C63.333,9.031 63.645,10.932 63.899,13.229 C63.899,13.229 63.928,13.71 63.531,13.795 C63.134,13.88 54.486,14.505 51.055,16.007 C47.623,17.51 47.991,20.941 47.991,21.338 C47.991,21.735 47.823,27.495 56.754,27.691 C61.944,27.804 64.552,24.854 64.552,24.854 C64.779,24.627 65.006,24.43 65.233,24.968 C65.46,25.506 65.687,27.378 66.395,27.435 C67.105,27.492 67.757,27.464 67.757,27.464 C67.757,27.464 68.465,27.492 68.465,26.84 C68.465,26.187 68.437,13.937 68.437,13.937 C68.437,13.937 68.594,9.674 66.225,7.358 M63.899,18.247 C63.899,18.247 63.872,18.814 63.758,19.693 C63.465,21.96 61.433,23.862 58.626,24.117 C55.818,24.373 52.841,23.72 52.7,20.998 C52.557,18.275 57.775,18.05 58.597,17.936 C59.42,17.821 62.279,17.52 63.276,17.453 C63.701,17.425 63.957,17.652 63.899,18.247" fill="#FFFFFF" id="path2586"/>
      <path d="M83.098,5.389 C77.886,5.325 76.084,7.578 76.084,7.578 C76.084,7.578 75.376,8.348 75.44,7.385 C75.504,6.418 75.389,0.772 75.389,0.772 C75.389,0.461 75.138,0.208 74.826,0.208 L71.481,0.208 C71.17,0.208 70.917,0.461 70.917,0.772 L70.917,27.063 C70.917,27.375 71.17,27.627 71.481,27.627 L72.963,27.627 C72.963,27.627 73.413,27.559 73.606,27.011 C73.8,26.465 74.024,25.596 74.024,25.596 C74.024,25.596 74.25,24.565 74.861,25.242 C75.472,25.917 78.143,28.234 83.324,27.944 C88.503,27.654 92.236,24.438 92.172,16.522 C92.108,8.607 88.31,5.453 83.098,5.389 M87.538,17.037 C87.507,18.485 87.959,24.305 81.232,24.18 C76.051,24.083 75.376,20.512 75.343,16.94 C75.303,12.499 76.277,9.089 81.65,9.187 C87.024,9.282 87.634,12.757 87.538,17.037" fill="#FFFFFF" id="path2590"/>
      <path d="M24.648,21.103 C24.461,21.492 24.167,21.569 23.98,21.6 C23.795,21.632 23.732,21.74 23.515,22.004 C23.298,22.268 23.034,22.671 22.086,24.054 C21.139,25.436 18.297,24.908 16.713,24.583 C15.13,24.256 14.896,23.759 14.772,22.657 C14.648,21.553 15.456,20.901 15.688,20.792 C15.921,20.684 16.946,20.28 17.583,19.721 C18.22,19.163 19.245,19.053 19.4,19.053 C19.554,19.053 19.974,19.022 21.372,18.866 C22.77,18.712 24.183,19.085 25.145,19.38 C25.956,19.629 27.581,20.537 28.36,20.975 L28.36,2.113 C28.36,0.946 27.415,-0 26.247,-0 L24.083,-0 C24.857,0.654 26.023,1.957 26.219,3.262 C26.464,4.891 24.644,5.434 24.494,5.486 C24.346,5.539 24.281,5.572 24.281,5.572 C23.739,4.444 24.229,3.955 24.453,3.625 C24.675,3.295 24.346,3.135 24.004,2.985 C23.665,2.837 23.548,2.688 23.495,2.507 C23.44,2.326 23.409,2.07 23.282,1.804 C23.154,1.538 22.909,1.496 22.685,1.475 C22.463,1.453 22.281,1.325 22.153,1.293 C22.026,1.262 21.834,1.262 21.834,1.262 L21.844,1.443 C21.844,1.443 21.228,1.123 20.631,0.687 C20.207,0.375 20.096,0.274 19.927,-0 L18.988,-0 C19.039,0.25 19.125,0.394 19.205,0.505 C19.312,0.655 19.023,1.059 18.748,1.143 C18.471,1.229 17.831,1.028 17.831,1.028 C16.928,1.272 16.959,1.123 15.884,1.282 C14.809,1.442 14.618,2.156 14.426,2.591 C14.234,3.028 14.575,2.868 14.064,3.592 C13.553,4.316 12.456,4.551 12.009,4.54 C11.563,4.53 11.701,4.476 11.722,5.88 C11.744,7.285 11.945,7.094 12.415,7.211 C12.883,7.328 13.063,6.7 13.139,6.604 C13.213,6.509 13.223,6.38 13.117,6.37 C12.598,6.319 12.286,6.21 12.138,6.072 C11.989,5.933 12.202,5.658 12.446,5.486 C12.69,5.316 13.426,4.922 13.638,4.827 C13.851,4.731 14.469,4.53 14.746,4.476 C15.023,4.423 15.065,4.667 15.129,4.795 C15.184,4.907 15.15,5.03 15.394,4.998 C16.845,4.808 17.162,5.04 17.257,5.03 C17.353,5.018 17.482,4.912 17.503,4.731 C17.523,4.551 17.013,4.444 16.779,4.38 C16.545,4.316 15.203,4.294 15.203,4.294 C15.203,4.294 14.863,4.029 14.799,3.391 C14.735,2.752 16.342,2.103 16.916,1.943 C17.492,1.783 18.886,1.58 20.471,1.793 C22.059,2.006 22.728,2.997 23.005,4.083 C23.282,5.168 22.441,5.508 22.313,5.519 C22.186,5.529 21.909,5.796 21.792,5.997 C21.675,6.2 21.302,6.477 21.036,6.637 C20.769,6.796 20.365,7.148 20.365,7.148 C20.365,7.148 20.355,7.414 20.024,7.542 C19.694,7.669 19.45,6.998 19.248,6.551 C19.046,6.105 18.865,5.912 18.694,5.562 C18.524,5.211 18.247,5.135 18.141,5.135 C18.034,5.135 18.003,5.316 18.003,5.603 C18.003,5.892 17.737,6.179 17.289,6.466 C16.842,6.754 15.937,6.264 15.831,6.222 C15.724,6.179 15.214,5.976 15.065,5.912 C14.916,5.849 14.862,5.753 14.735,5.603 C14.606,5.455 14.374,5.711 14.298,5.763 C14.224,5.818 14.118,5.912 14.309,6.157 C14.501,6.401 15.107,6.604 15.394,6.69 C15.683,6.774 16.001,7.158 16.172,7.297 C16.342,7.435 16.524,7.564 16.641,7.488 C17.432,6.984 18.397,6.848 18.555,6.848 C18.715,6.848 19.386,6.86 19.056,7.882 C18.604,9.285 17.129,9.574 15.991,9.617 C14.852,9.659 14.266,9.372 14.202,9.372 C14.139,9.372 14.128,9.499 14.159,9.499 C14.192,9.499 14.565,9.766 14.842,9.958 C15.117,10.149 15.586,10.447 15.778,10.447 C15.97,10.447 16.598,10.235 16.811,10.18 C17.023,10.128 17.544,10.001 17.96,9.872 C18.375,9.745 19.971,8.457 20.258,8.169 C20.547,7.882 20.769,7.211 20.876,7.18 C20.982,7.148 21.185,7.318 21.345,7.339 C21.505,7.359 21.844,6.881 21.93,6.54 C22.016,6.2 22.037,6.157 22.133,6.136 C22.228,6.115 22.26,6.349 22.26,6.349 C22.26,6.349 22.377,6.945 22.324,7.775 C22.271,8.606 22.196,8.818 21.951,9.521 C21.706,10.223 20.866,10.298 20.589,10.383 C20.313,10.469 19.62,10.692 19.13,10.777 C18.641,10.861 18.385,10.596 18.055,10.447 C17.938,10.395 17.3,10.288 17.247,10.469 C17.018,11.247 18.397,11.671 18.619,11.724 C20.08,12.072 22.111,11.373 22.217,10.5 C22.378,9.185 22.525,9.031 22.697,8.84 C22.867,8.649 23.325,8.809 23.325,8.809 C23.495,8.637 24.293,8.052 24.293,8.052 C24.293,8.052 24.548,7.925 24.42,7.722 C24.293,7.521 24.207,6.701 25.219,6.807 C26.23,6.914 26.57,8.339 26.57,8.339 C26.57,8.339 26.975,9.181 26.687,11.32 C26.4,13.458 23.548,15.653 20.951,16.471 C18.354,17.29 17.119,17.196 16.799,17.196 C16.481,17.196 15.841,16.94 15.628,16.898 C15.416,16.855 14.873,16.492 14.692,16.418 C14.511,16.344 13.884,16.024 13.745,15.961 C13.607,15.897 13.117,15.588 12.83,15.386 C12.542,15.184 12.468,14.97 12.372,14.757 C12.276,14.545 11.755,14.131 11.691,14.077 C11.627,14.024 11.691,13.938 11.691,13.938 C12.286,14.194 16.309,14.757 16.629,14.769 C16.949,14.779 18.407,14.822 18.598,14.822 C18.789,14.822 19.13,14.939 19.14,14.693 C19.152,14.449 18.024,14.279 17.896,14.268 C17.768,14.258 17.205,14.246 16.789,14.194 C16.374,14.141 15.373,12.586 15.234,12.385 C15.097,12.182 15.043,12.235 14.788,12.108 C14.532,11.979 13.638,11.288 13.531,11.17 C13.426,11.054 13.617,10.607 13.511,10.49 C13.404,10.372 13.063,10.563 12.795,10.684 C12.159,10.971 11.925,10.643 11.925,10.643 L11.056,9.731 L10.849,10.186 C10.849,10.186 13.043,11.968 13.664,12.465 C14.286,12.962 13.83,13.127 13.83,13.127 C13.83,13.127 13.374,13.624 13.209,13.665 C13.043,13.707 11.718,13.458 10.683,13.169 C9.648,12.879 9.317,12.547 8.282,11.637 C7.247,10.726 6.833,8.366 6.957,7.909 C7.081,7.454 7.123,6.75 7.04,6.543 C6.957,6.336 6.791,5.632 7.164,5.632 C7.537,5.632 7.826,6.46 8.696,7.454 C9.565,8.447 10.517,8.779 10.89,8.572 C11.263,8.365 10.766,7.743 10.559,7.371 C10.352,6.998 10.393,6.874 9.565,5.839 C8.737,4.804 9.317,4.017 9.482,3.645 C9.648,3.272 10.145,2.568 10.269,1.408 C10.336,0.788 10.58,0.37 10.94,-0 L2.113,-0 C0.945,-0 0,0.946 0,2.113 L0,9.625 C0.577,9.818 1.859,10.259 2.089,10.447 C2.387,10.692 5.031,12.689 4.931,16.269 C4.921,16.652 5.051,16.776 5.218,16.962 C5.314,17.067 6.24,17.963 6.08,18.515 C5.655,17.887 5.229,17.557 5.101,17.493 C4.974,17.429 4.835,17.354 4.74,17.59 C4.644,17.823 4.558,18.452 3.292,18.271 C2.132,18.104 1.175,17.907 0,16.312 L0,25.372 C0,26.538 0.945,27.485 2.113,27.485 L3.798,27.485 C3.983,27.107 4.089,26.862 4.229,26.538 C4.43,26.073 5.082,24.411 5.394,23.883 C5.703,23.355 6.155,22.657 6.155,22.657 C6.155,22.657 6.015,21.553 6.046,20.916 C6.076,20.28 6.419,18.866 6.419,18.866 C6.419,18.866 6.543,18.635 6.48,18.385 C6.419,18.137 6.324,17.874 6.387,17.423 C6.449,16.973 6.651,16.274 7.008,15.948 C7.365,15.623 7.614,15.436 7.815,15.451 C8.018,15.467 8.327,15.761 8.731,16.709 C8.731,16.709 8.514,16.739 8.343,16.693 C8.173,16.646 8.282,16.786 8.313,16.833 C8.343,16.879 8.747,17.19 8.546,17.579 C8.343,17.967 7.375,19.135 7.582,19.41 C7.722,19.597 7.801,19.426 8.018,19.193 C8.235,18.96 8.716,18.401 8.794,18.432 C8.871,18.464 8.639,19.272 7.801,20.141 C7.801,20.141 8.033,20.25 7.801,20.684 C7.568,21.119 7.225,21.569 7.18,21.662 C7.133,21.756 7.133,21.973 7.272,21.849 C7.412,21.724 8.731,20.669 10.021,20.669 C10.953,20.669 11.031,20.956 11.201,21.042 C11.356,21.119 11.59,21.383 11.635,21.523 C11.682,21.662 11.744,21.77 11.977,21.849 C12.211,21.926 12.972,22.113 13.08,23.106 C13.08,23.106 13.484,23.603 12.986,24.364 C12.986,24.364 16.878,23.84 18.528,27.485 L26.247,27.485 C27.415,27.485 28.36,26.538 28.36,25.372 L28.36,21.298 C27.701,20.908 26.273,20.731 26.077,20.731 C25.843,20.731 24.835,20.715 24.648,21.103 M7.692,12.279 C7.568,12.311 7.425,12.251 7.23,12.446 C7.167,12.508 7.09,12.645 7.085,12.78 C7.074,13.184 6.2,12.764 6.092,12.73 C5.813,12.643 5.378,12.376 4.416,11.29 C3.452,10.202 3.111,7.966 3.079,7.081 C3.048,6.196 3.436,4.581 4.586,3.059 C5.735,1.538 7.738,1.273 8.002,1.273 C8.266,1.273 8.514,1.305 8.53,1.46 C8.546,1.616 8.499,1.616 8.499,1.802 C8.499,1.802 8.639,2.143 8.592,2.687 C8.486,3.927 7.304,4.892 6.729,5.374 C6.155,5.855 6.216,6.491 6.232,7.128 C6.247,7.763 6.744,9.876 6.853,10.233 C6.961,10.59 7.664,11.821 7.774,11.976 C7.882,12.132 7.815,12.248 7.692,12.279 M10.774,18.792 C10.146,18.345 9.785,17.504 9.402,16.418 C9.018,15.333 8.796,14.576 8.624,14.088 C8.455,13.598 8.337,13.555 8.316,13.427 C8.295,13.3 8.337,13.226 8.39,13.173 C8.39,13.173 9.327,13.321 10.105,13.672 C10.882,14.024 10.86,14.088 11.53,14.535 C12.201,14.982 12.468,15.907 12.648,16.248 C12.829,16.589 13.448,16.849 13.534,16.892 C13.62,16.933 13.898,17.136 13.898,17.136 C16.602,18.168 18.417,18.25 18.502,18.271 C18.588,18.291 18.629,18.367 18.629,18.367 C18.374,18.759 15.968,18.835 15.968,18.835 C15.968,18.835 15.139,18.813 13.777,19.207 C12.413,19.6 11.403,19.239 10.774,18.792" fill="#FFFFFF" id="path2594"/>
      <path d="M104.827,27.963 C96.15,27.963 93.94,22.522 93.94,16.65 C93.94,10.831 96.207,5.389 104.88,5.389 C113.446,5.389 115.814,10.831 115.814,16.65 C115.814,22.575 113.446,27.963 104.827,27.963 M104.88,9.161 C99.763,9.161 98.631,12.5 98.631,16.65 C98.631,20.852 99.763,24.192 104.827,24.192 C109.995,24.192 111.127,20.905 111.127,16.65 C111.127,12.554 110.105,9.161 104.88,9.161" fill="#FFFFFF" id="path2598"/>
    </g>
  </g>
</svg>
