<?xml version="1.0" encoding="UTF-8" standalone="no"?>
<svg
   xmlns:dc="http://purl.org/dc/elements/1.1/"
   xmlns:cc="http://creativecommons.org/ns#"
   xmlns:rdf="http://www.w3.org/1999/02/22-rdf-syntax-ns#"
   xmlns:svg="http://www.w3.org/2000/svg"
   xmlns="http://www.w3.org/2000/svg"
   xmlns:sodipodi="http://sodipodi.sourceforge.net/DTD/sodipodi-0.dtd"
   xmlns:inkscape="http://www.inkscape.org/namespaces/inkscape"
   version="1.1"
   x="0"
   y="0"
   width="28.360001"
   height="28.360001"
   viewBox="0 0 28.360001 28.36"
   id="svg2"
   inkscape:version="0.48.4 r9939"
   sodipodi:docname="labour-rose-red.svg"
   inkscape:export-filename="/home/chris/Work/Workspaces/WebStorm/amplify/polymer-app/app/edit/images/manifest/icon-48x48.png"
   inkscape:export-xdpi="152.33"
   inkscape:export-ydpi="152.33">
  <metadata
     id="metadata19">
    <rdf:RDF>
      <cc:Work
         rdf:about="">
        <dc:format>image/svg+xml</dc:format>
        <dc:type
           rdf:resource="http://purl.org/dc/dcmitype/StillImage" />
        <dc:title></dc:title>
      </cc:Work>
    </rdf:RDF>
  </metadata>
  <defs
     id="defs17" />
  <sodipodi:namedview
     pagecolor="#ffffff"
     bordercolor="#666666"
     borderopacity="1"
     objecttolerance="10"
     gridtolerance="10"
     guidetolerance="10"
     inkscape:pageopacity="0"
     inkscape:pageshadow="2"
     inkscape:window-width="1416"
     inkscape:window-height="788"
     id="namedview15"
     showgrid="false"
     inkscape:zoom="20.171151"
     inkscape:cx="14.061663"
     inkscape:cy="13.637921"
     inkscape:window-x="0"
     inkscape:window-y="0"
     inkscape:window-maximized="0"
     inkscape:current-layer="g3316" />
  <g
     id="Layer_1"
     transform="translate(0,0.38199921)">
    <g
       id="g3316">
      <rect
         style="fill:#ffffff;fill-opacity:1;stroke:#ffffff;stroke-width:0.91012722;stroke-opacity:1"
         id="rect2993"
         width="27.449873"
         height="27.449873"
         x="0.45506403"
         y="0.073064305" />
      <g
         id="g2988"
         transform="translate(5.0000003e-8,-0.66626861)">
        <path
           style="fill:#d30437"
           inkscape:connector-curvature="0"
           id="path2566"
           d="m 9.561,27.275 c -0.164,0.037 -0.298,0.16 -0.395,0.279 l 2.441,0 c -0.25,-0.47 -0.551,-1.057 -0.587,-1.227 0,0 -1.118,0.87 -1.459,0.948" />
        <path
           style="fill:#d30437"
           inkscape:connector-curvature="0"
           id="path2570"
           d="m 5.819,26.405 c 0.016,-0.248 0,-1.087 -0.156,-1.273 0,0 -0.093,0.512 -0.17,0.684 -0.053,0.114 -0.494,1.105 -0.775,1.739 l 1.416,0 C 6.094,27.436 6.044,27.298 6.006,27.213 5.927,27.042 5.803,26.654 5.819,26.405" />
        <path
           style="fill:#d30437"
           inkscape:connector-curvature="0"
           id="path2594"
           d="m 24.146007,21.464548 c -0.178032,0.370345 -0.457934,0.443653 -0.635966,0.473166 -0.176128,0.03047 -0.236107,0.133287 -0.442701,0.384626 -0.206594,0.25134 -0.457934,0.635015 -1.360472,1.951693 -0.901587,1.315726 -3.6073,0.813047 -5.115339,0.503632 -1.507088,-0.311319 -1.729866,-0.784485 -1.84792,-1.833639 -0.118053,-1.051058 0.651199,-1.671791 0.872074,-1.775564 0.221826,-0.102821 1.197672,-0.487447 1.804125,-1.019641 0.606453,-0.531241 1.582299,-0.635966 1.729866,-0.635966 0.146615,0 0.546474,-0.02951 1.877433,-0.178032 1.330959,-0.146615 2.676199,0.208498 3.592067,0.489351 0.772108,0.237059 2.319182,1.101516 3.060825,1.518512 l 0,-17.9574757 c 0,-1.1110367 -0.899683,-2.0116715 -2.011672,-2.0116715 l -2.060225,0 c 0.736883,0.6226376 1.846967,1.8631524 2.033568,3.1055714 0.233251,1.5508816 -1.499471,2.0678421 -1.642278,2.1173484 -0.140902,0.050458 -0.202785,0.081876 -0.202785,0.081876 C 23.280598,5.6044276 23.7471,5.1388775 23.960358,4.8247026 24.171712,4.5105277 23.85849,4.3582005 23.53289,4.2153937 23.210147,4.074491 23.098758,3.9326363 23.048299,3.7603161 22.995937,3.5879959 22.966423,3.3442724 22.845514,3.0910283 22.723652,2.8377843 22.490401,2.7977984 22.277143,2.7778055 22.065789,2.7568605 21.892516,2.6349987 21.770655,2.6045333 21.649745,2.5750199 21.466952,2.5750199 21.466952,2.5750199 l 0.0095,0.1723201 c 0,0 -0.58646,-0.3046544 -1.154831,-0.7197461 C 19.917975,1.7305558 19.812298,1.6343992 19.651402,1.3735388 l -0.89397,0 c 0.04855,0.2380113 0.13043,0.3751058 0.206593,0.4807829 0.101869,0.1428067 -0.173272,0.527433 -0.435084,0.6074048 -0.263717,0.081876 -0.873026,-0.1094852 -0.873026,-0.1094852 -0.859696,0.232299 -0.830183,0.090444 -1.853632,0.2418195 -1.023448,0.1523272 -1.205289,0.8320874 -1.388081,1.2462271 -0.182793,0.4160437 0.141854,0.2637165 -0.344641,0.9529972 -0.486495,0.6892807 -1.530888,0.9130113 -1.956453,0.9025388 -0.424612,-0.00952 -0.29323,-0.060931 -0.273237,1.2757405 0.02095,1.3376235 0.212307,1.1557829 0.659768,1.2671721 0.445557,0.1113893 0.616925,-0.486495 0.68928,-0.5778914 0.07045,-0.090444 0.07997,-0.2132581 -0.02095,-0.2227785 -0.494111,-0.048554 -0.791149,-0.1523273 -0.932052,-0.2837095 -0.141855,-0.1323343 0.06093,-0.3941467 0.29323,-0.5578985 0.232299,-0.1618476 0.933004,-0.5369534 1.134838,-0.6273977 0.202786,-0.091396 0.791149,-0.2827574 1.054866,-0.3341679 0.263717,-0.050458 0.303702,0.1818406 0.364633,0.3037024 0.05236,0.1066291 0.01999,0.2237306 0.252292,0.1932652 1.381418,-0.1808886 1.683216,0.039986 1.77366,0.030465 0.0914,-0.011425 0.214211,-0.1123413 0.234204,-0.2846615 0.01904,-0.1713681 -0.466503,-0.2732369 -0.689281,-0.3341678 -0.222779,-0.060931 -1.500423,-0.081876 -1.500423,-0.081876 0,0 -0.323696,-0.252292 -0.384627,-0.8596968 -0.06093,-0.6083568 1.469006,-1.2262342 2.01548,-1.3785614 0.548378,-0.1523272 1.875529,-0.3455924 3.384521,-0.1428068 1.511847,0.2027857 2.148766,1.1462624 2.412482,2.1801835 0.263717,1.032969 -0.536953,1.3566643 -0.658815,1.3671368 -0.12091,0.00952 -0.384626,0.2637165 -0.496016,0.4550776 -0.111389,0.1932652 -0.466502,0.4569817 -0.719746,0.6093089 -0.254196,0.1513752 -0.638822,0.4864951 -0.638822,0.4864951 0,0 -0.0095,0.253244 -0.324648,0.3751058 C 19.429575,8.6747732 19.197276,8.0359509 19.004963,7.6103867 18.81265,7.1857746 18.64033,7.0020299 18.47753,6.6688141 18.315683,6.3346462 18.051966,6.2622908 17.951049,6.2622908 c -0.101868,0 -0.131382,0.1723202 -0.131382,0.4455571 0,0.2751411 -0.253244,0.548378 -0.67976,0.821615 C 16.714343,7.8036519 15.852742,7.3371498 15.751825,7.2971639 15.649956,7.2562259 15.164413,7.0629608 15.022558,7.0020299 14.880704,6.942051 14.829293,6.8506547 14.708384,6.7078479 14.58557,6.5669452 14.364695,6.8106688 14.29234,6.8601751 c -0.07045,0.052363 -0.171368,0.1418548 0.01047,0.3751058 0.182793,0.2322991 0.759732,0.4255642 1.032969,0.5074401 0.275141,0.079972 0.577892,0.4455571 0.740691,0.5778914 0.161848,0.1313823 0.33512,0.2541961 0.44651,0.1818406 0.753067,-0.4798307 1.671791,-0.6093089 1.822214,-0.6093089 0.152327,0 0.79115,0.011425 0.476975,0.9844147 -0.430325,1.3357192 -1.834591,1.6108602 -2.918019,1.6517982 -1.084379,0.03999 -1.642278,-0.233251 -1.703209,-0.233251 -0.05998,0 -0.07045,0.12091 -0.04094,0.12091 0.03142,0 0.386532,0.254196 0.650247,0.436988 0.261814,0.181841 0.708322,0.46555 0.891115,0.46555 0.182792,0 0.780677,-0.201833 0.983462,-0.254196 0.201834,-0.04951 0.697849,-0.170416 1.0939,-0.293229 0.395099,-0.12091 1.914563,-1.3471442 2.1878,-1.6213332 0.275141,-0.273237 0.486495,-0.9120593 0.588364,-0.9415727 0.100917,-0.030465 0.294182,0.1313823 0.446509,0.1513752 0.152327,0.019041 0.475071,-0.4360367 0.556946,-0.7606841 0.08188,-0.3236953 0.101869,-0.3646333 0.193266,-0.3846262 0.09044,-0.019993 0.120909,0.2027856 0.120909,0.2027856 0,0 0.11139,0.5674189 0.06093,1.3576164 -0.05046,0.7911495 -0.121862,0.9929831 -0.355113,1.662271 -0.233251,0.668335 -1.032969,0.739739 -1.296685,0.820663 -0.262765,0.08188 -0.922532,0.294182 -1.389034,0.375105 -0.46555,0.07997 -0.709274,-0.17232 -1.023449,-0.314175 -0.111389,-0.04951 -0.718794,-0.151375 -0.769252,0.02094 -0.218018,0.740692 1.094852,1.144359 1.306206,1.194817 1.390938,0.331312 3.324542,-0.334168 3.425458,-1.165303 0.15328,-1.251939 0.29323,-1.3985543 0.456982,-1.5803949 0.161848,-0.1818406 0.597884,-0.029513 0.597884,-0.029513 0.161848,-0.1637518 0.92158,-0.7206982 0.92158,-0.7206982 0,0 0.242772,-0.1209097 0.12091,-0.3141749 -0.12091,-0.1913611 -0.202786,-0.9720381 0.760684,-0.8711213 0.962518,0.1018688 1.286213,1.4585332 1.286213,1.4585332 0,0 0.385578,0.8016221 0.111389,2.8380461 -0.273237,2.035472 -2.988469,4.125212 -5.460931,4.903985 -2.472461,0.779725 -3.648237,0.690232 -3.952891,0.690232 -0.302751,0 -0.91206,-0.243723 -1.114845,-0.283709 -0.201834,-0.04094 -0.718794,-0.38653 -0.891114,-0.456982 -0.172321,-0.07045 -0.769253,-0.375106 -0.901587,-0.435084 -0.131382,-0.06093 -0.597885,-0.355113 -0.871122,-0.547426 -0.274189,-0.192314 -0.34464,-0.396051 -0.436036,-0.598837 -0.0914,-0.201833 -0.587412,-0.59598 -0.648343,-0.647391 -0.06093,-0.05046 0,-0.132334 0,-0.132334 0.566467,0.243724 4.396545,0.779725 4.701199,0.79115 0.304655,0.0095 1.692736,0.05046 1.874577,0.05046 0.181841,0 0.506488,0.111389 0.516008,-0.122814 0.01142,-0.232299 -1.062482,-0.394146 -1.184344,-0.404619 -0.121862,-0.0095 -0.657863,-0.02094 -1.053914,-0.07045 -0.395098,-0.05046 -1.348096,-1.530889 -1.48043,-1.72225 -0.13043,-0.193265 -0.181841,-0.142807 -0.424612,-0.263716 -0.243724,-0.122814 -1.094852,-0.780678 -1.196721,-0.893019 -0.09996,-0.110437 0.08188,-0.536001 -0.01904,-0.647391 -0.101869,-0.112341 -0.426517,0.0695 -0.681664,0.184697 -0.605501,0.273237 -0.828279,-0.03903 -0.828279,-0.03903 l -0.827328,-0.868265 -0.197073,0.433181 c 0,0 2.088787,1.696544 2.680007,2.169711 0.592172,0.473166 0.15804,0.630254 0.15804,0.630254 0,0 -0.434133,0.473166 -0.59122,0.5122 -0.15804,0.03999 -1.4195,-0.197074 -2.404866,-0.472215 C 9.8653297,13.634928 9.5502027,13.318849 8.564836,12.452488 7.5794693,11.585175 7.1853226,9.3383487 7.3033762,8.9032641 7.4214298,8.4700835 7.4614157,7.7998437 7.3823959,7.6027704 7.3033762,7.405697 7.1453367,6.7354572 7.5004495,6.7354572 c 0.3551128,0 0.6302539,0.7882934 1.4585332,1.7346263 C 9.7863109,9.4154644 10.692657,9.7315434 11.04777,9.53447 11.402883,9.3373967 10.929716,8.7452246 10.732643,8.3910638 10.53557,8.0359509 10.574604,7.9178973 9.7863109,6.9325306 8.9980175,5.9471638 9.5502037,5.1979043 9.7072911,4.8437435 9.8653306,4.4886306 10.338497,3.8183908 10.45655,2.7140185 10.520337,2.1237504 10.752636,1.7257956 11.095372,1.3735388 l -8.4037017,0 c -1.1119887,0 -2.0116714,0.9006348 -2.0116714,2.0116715 l 0,7.1517637 c 0.5493301,0.183744 1.769852,0.603596 1.9888223,0.78258 0.2837095,0.233252 2.8009169,2.134486 2.7057124,5.542807 -0.00952,0.364634 0.1142454,0.482687 0.273237,0.659768 0.091396,0.09996 0.9729901,0.952997 0.8206629,1.478526 C 6.0638143,18.402771 5.6582431,18.088596 5.5363813,18.027665 5.4154715,17.966734 5.2831373,17.89533 5.192693,18.120013 5.1012966,18.34184 5.0194208,18.940676 3.8141316,18.768356 2.7097592,18.609364 1.798652,18.421811 0.6799989,16.903299 l 0,8.62553 c 0,1.110084 0.8996827,2.011671 2.0116714,2.011671 l 1.6041961,0 c 0.1761284,-0.359873 0.2770452,-0.593124 0.4103315,-0.901587 0.1913611,-0.442701 0.8120945,-2.025 1.1091326,-2.52768 0.294182,-0.50268 0.7245064,-1.167207 0.7245064,-1.167207 0,0 -0.1332863,-1.051058 -0.1037729,-1.657511 0.028561,-0.6055 0.3551128,-1.951692 0.3551128,-1.951692 0,0 0.1180536,-0.219923 0.058075,-0.457934 -0.058075,-0.236107 -0.1485191,-0.486495 -0.08854,-0.915867 0.059027,-0.428421 0.2513399,-1.0939 0.59122,-1.404267 0.3398801,-0.309415 0.5769394,-0.487447 0.7683005,-0.473167 0.1932651,0.01523 0.4874471,0.295134 0.8720733,1.197673 0,0 -0.2065938,0.02856 -0.3693935,-0.01523 -0.1618477,-0.04475 -0.058075,0.08854 -0.028561,0.133286 0.028561,0.04379 0.4131876,0.33988 0.2218266,0.710226 -0.1932652,0.369393 -1.1148449,1.481382 -0.9177716,1.743194 0.1332864,0.178033 0.2084979,0.01523 0.4150917,-0.206593 0.2065938,-0.221827 0.6645275,-0.75402 0.7387871,-0.724507 0.073307,0.03047 -0.147567,0.799718 -0.9453809,1.627045 0,0 0.2208745,0.103773 0,0.516961 -0.2218265,0.414139 -0.548378,0.84256 -0.59122,0.9311 -0.044746,0.08949 -0.044746,0.296086 0.087588,0.178032 0.1332864,-0.119005 1.3890339,-1.123413 2.617172,-1.123413 0.887306,0 0.961565,0.273237 1.123413,0.355113 0.147567,0.07331 0.370345,0.324647 0.413188,0.457934 0.04475,0.132334 0.103772,0.235155 0.325599,0.310366 0.222779,0.07331 0.947285,0.25134 1.050106,1.196721 0,0 0.384626,0.473167 -0.08949,1.197673 0,0 3.705359,-0.498872 5.276234,2.971333 l 7.348836,0 c 1.111989,0 2.011672,-0.901587 2.011672,-2.011671 l 0,-3.878632 c -0.627398,-0.371298 -1.986918,-0.53981 -2.173519,-0.53981 -0.222779,0 -1.18244,-0.01523 -1.360473,0.354161 M 8.0031303,13.063701 c -0.1180536,0.03047 -0.2541961,-0.02666 -0.4398449,0.158992 -0.059979,0.05903 -0.1332863,0.189457 -0.1380465,0.317983 -0.010473,0.384626 -0.84256,-0.01523 -0.9453809,-0.0476 C 6.2142374,13.410246 5.8000978,13.15605 4.8842303,12.122129 3.9664588,11.086303 3.6418114,8.9575306 3.611346,8.1149707 3.5818326,7.2724107 3.9512261,5.7348578 5.046078,4.285845 6.1399779,2.8377843 8.0469244,2.5854924 8.2982643,2.5854924 c 0.2513399,0 0.4874471,0.030465 0.5026798,0.1780324 0.015233,0.148519 -0.029513,0.148519 -0.029513,0.3255994 0,0 0.1332864,0.3246474 0.08854,0.84256 C 8.7590542,5.1122202 7.6337368,6.0309438 7.0863108,6.4898296 6.5398369,6.9477633 6.5979116,7.553264 6.6131444,8.1597168 c 0.014281,0.6045487 0.4874471,2.6162202 0.59122,2.9561002 0.1028209,0.33988 0.7721086,1.511848 0.8768336,1.659415 0.1028209,0.148519 0.039034,0.258956 -0.078068,0.288469 m 2.934203,6.20067 C 10.339449,18.838807 9.9957608,18.038137 9.6311275,17.004216 9.2655422,15.971247 9.0541882,15.250549 8.8904364,14.785951 8.7295408,14.319449 8.6171994,14.278511 8.5972065,14.156649 c -0.019993,-0.12091 0.019993,-0.191361 0.070451,-0.241819 0,0 0.8920663,0.140902 1.6327565,0.47507 0.739739,0.33512 0.718795,0.396051 1.356665,0.821615 0.638822,0.425564 0.893018,1.306206 1.064386,1.630853 0.17232,0.324648 0.761636,0.57218 0.843512,0.613118 0.08188,0.03903 0.346545,0.232299 0.346545,0.232299 2.57433,0.98251 4.302292,1.060578 4.383216,1.080571 0.08188,0.01904 0.120909,0.0914 0.120909,0.0914 -0.242771,0.373202 -2.533392,0.445557 -2.533392,0.445557 0,0 -0.789245,-0.02095 -2.085931,0.354161 -1.298589,0.374154 -2.260155,0.03047 -2.858991,-0.395099" />
      </g>
    </g>
  </g>
</svg>
