<?xml version="1.0" encoding="utf-8"?>
<!-- Generator: Adobe Illustrator 21.1.0, SVG Export Plug-In . SVG Version: 6.00 Build 0)  -->
<svg version="1.1" id="Layer_1" xmlns="http://www.w3.org/2000/svg" xmlns:xlink="http://www.w3.org/1999/xlink" x="0px" y="0px"
	 viewBox="0 0 24 24" style="enable-background:new 0 0 24 24;" xml:space="preserve">
<style type="text/css">
	.st0{fill: #FF0000;}
</style>
<path class="st0" d="M12,0.2L1.8,6.1v11.7L12,23.8l10.2-5.9V6.1L12,0.2z M16,9.5L16,9.5L16,9.5l0,4.6l-4.2,2.4L10,15.5v-4.7l1.9-1.1
	l1.3,0.7l0.5,0.3v2.2l-1.5,0.9v-2.3l-0.4-0.2l-0.5,0.3v3.1l0.5,0.3l2.8-1.6v-3.1L12,8.8l-2.7,1.6v3.1L8,14.1V9.5l4-2.3L16,9.5z
	 M19.6,12.9v3.5l-5.2,3L12,17.9l-2.4,1.4l-5.2-3v-3.5l-1-0.9l1-0.9V7.6l5.1-3L12,6.1L6.9,9V15l5.1,3l5.1-3V9l-5.1-3l2.4-1.4l5.1,3
	v3.5l1,0.9L19.6,12.9z"/>
</svg>
